<svg xmlns="http://www.w3.org/2000/svg" viewBox="0 0 512.007 512.007">
  <circle cx="256.003" cy="256.003" r="256.003" fill="#3c2b64"/>
  <path d="M370.65 196.312c-20.897 0-38.177 7.405-51.844 22.209-3.996 4.329-7.39 9.158-10.218 14.456l-93.115-93.115h-46.496L84.154 357.639l153.713 153.713c5.991.419 12.035.648 18.132.648 125.976 0 230.697-90.994 252.027-210.841l-86.085-86.085-.03.03c-13.093-12.514-30.17-18.792-51.261-18.792z" fill="#221838"/>
  <path d="M302.673 357.639h-47.834l-19.015-49.468h-87.051l-17.975 49.468H84.154l84.823-217.777h46.496l87.2 217.777zm-80.96-86.16-30.007-80.813-29.414 80.813h59.421zm180.134 35.95 41.594 6.982c-5.348 15.252-13.792 26.864-25.328 34.835-11.539 7.974-25.974 11.959-43.303 11.959-27.433 0-47.736-8.962-60.906-26.888-10.399-14.358-15.598-32.482-15.598-54.37 0-26.145 6.834-46.619 20.5-61.426 13.667-14.804 30.948-22.209 51.844-22.209 23.472 0 41.989 7.75 55.558 23.248 13.567 15.5 20.055 39.243 19.46 71.231H341.089c.297 12.381 3.663 22.012 10.101 28.893 6.437 6.884 14.458 10.324 24.065 10.324 6.536 0 12.033-1.782 16.489-5.348 4.457-3.567 7.823-9.308 10.103-17.231zm2.377-42.189c-.297-12.081-3.417-21.266-9.359-27.556-5.942-6.288-13.172-9.433-21.688-9.433-9.113 0-16.638 3.319-22.58 9.952-5.942 6.636-8.865 15.649-8.764 27.036h62.391v.001z" fill="#a87eb7"/>
</svg>
