<svg height="512" width="512" xmlns="http://www.w3.org/2000/svg">
  <path d="M305.7 173.95c-58.945 0-106.9 47.955-106.9 106.9s47.956 106.9 106.9 106.9 106.899-47.955 106.899-106.9-47.954-106.9-106.899-106.9zm0 198.8c-50.674 0-91.9-41.226-91.9-91.9s41.227-91.9 91.9-91.9 91.899 41.226 91.899 91.9-41.225 91.9-91.899 91.9z"/>
  <path d="M305.7 240.217c-22.405 0-40.634 18.228-40.634 40.633s18.228 40.633 40.634 40.633c22.405 0 40.633-18.228 40.633-40.633s-18.228-40.633-40.633-40.633zm0 66.266c-14.135 0-25.634-11.499-25.634-25.633s11.499-25.633 25.634-25.633c14.134 0 25.633 11.499 25.633 25.633s-11.499 25.633-25.633 25.633z"/>
  <path d="M471.366 140.817h-27.268c-10.542 0-19.884-6.325-23.799-16.114l-16.472-41.177c-6.206-15.517-21.015-25.542-37.728-25.542H228.732c-16.712 0-31.52 10.026-37.727 25.542l-16.471 41.177c-3.916 9.789-13.258 16.114-23.8 16.114H114.4v-17.634c0-8.547-6.953-15.5-15.5-15.5H65.2c-8.547 0-15.5 6.953-15.5 15.5v17.634h-9.067C18.228 140.817 0 159.045 0 181.45v231.933c0 22.405 18.228 40.633 40.633 40.633H194.52c4.142 0 7.5-3.358 7.5-7.5s-3.358-7.5-7.5-7.5h-13.853v-17.633c0-8.547-6.953-15.5-15.5-15.5h-17.633v-183.8h31.08c-8.301 17.881-12.946 37.79-12.946 58.767 0 77.214 62.819 140.033 140.034 140.033 69.01 0 126.514-50.18 137.957-115.967H454.8c13.271 0 24.066-10.796 24.066-24.066 0-13.271-10.796-24.067-24.066-24.067h-11.143c-2.118-12.175-5.815-23.813-10.87-34.7H497V269.6c0 4.142 3.357 7.5 7.5 7.5s7.5-3.358 7.5-7.5v-88.15c0-22.405-18.228-40.633-40.634-40.633zM64.7 123.183c0-.276.224-.5.5-.5h33.7c.276 0 .5.224.5.5v17.634H64.7zm-24.067 32.634H132.533v51.267H15V181.45c0-14.134 11.499-25.633 25.633-25.633zm125.033 265.566v17.633H114.4v-17.633c0-.276.224-.5.5-.5h50.267a.5.5 0 0 1 .499.5zm-33.133-15.5H114.9c-8.547 0-15.5 6.953-15.5 15.5v17.633H40.633C26.499 439.017 15 427.518 15 413.383V338.05h25.633c4.142 0 7.5-3.358 7.5-7.5s-3.358-7.5-7.5-7.5H15v-18.133h25.633c4.142 0 7.5-3.358 7.5-7.5s-3.358-7.5-7.5-7.5H15v-18.133h25.633c4.142 0 7.5-3.358 7.5-7.5s-3.358-7.5-7.5-7.5H15v-34.7h117.533zm173.167 0c-68.944 0-125.034-56.09-125.034-125.033s56.09-125.033 125.034-125.033c68.943 0 125.033 56.09 125.033 125.033S374.644 405.883 305.7 405.883zm149.1-134.1c4.999 0 9.066 4.067 9.066 9.067 0 4.999-4.067 9.066-9.066 9.066h-9.368c.193-2.999.302-6.02.302-9.066 0-3.047-.109-6.068-.302-9.067zm-30.124-64.7c-24.734-39.748-68.813-66.267-118.976-66.267s-94.242 26.518-118.976 66.267h-39.191v-51.267h3.201c16.711 0 31.521-10.026 37.727-25.543l16.471-41.177c3.916-9.789 13.258-16.113 23.8-16.113H366.1c10.543 0 19.885 6.325 23.8 16.113l16.472 41.177c6.206 15.517 21.015 25.543 37.727 25.543h27.268c14.135 0 25.634 11.499 25.634 25.633v25.633h-72.325z"/>
  <path d="M504.5 292.1c-4.143 0-7.5 3.358-7.5 7.5v113.784c0 14.134-11.499 25.633-25.634 25.633H224.519c-4.142 0-7.5 3.358-7.5 7.5s3.358 7.5 7.5 7.5h246.848c22.405 0 40.634-18.228 40.634-40.633V299.6c-.001-4.143-3.358-7.5-7.501-7.5zM355.4 107.683H239.433c-4.142 0-7.5 3.358-7.5 7.5s3.358 7.5 7.5 7.5H355.4c4.143 0 7.5-3.358 7.5-7.5s-3.357-7.5-7.5-7.5z"/>
  <path d="M471.366 420.883c4.143 0 7.5-3.358 7.5-7.5V380.25c0-4.142-3.357-7.5-7.5-7.5h-33.133c-4.143 0-7.5 3.358-7.5 7.5v33.133c0 4.142 3.357 7.5 7.5 7.5zm-25.633-33.133h18.133v18.133h-18.133z"/>
</svg>
