<svg version="1.1" id="Calque_1" xmlns="http://www.w3.org/2000/svg" x="0" y="0" viewBox="0 0 524.6 525.3" xml:space="preserve"><style>.st0{fill:#eef0f2}</style><path class="st0" d="M437.6.1c-12.7-.3-29.5-.1-39.7.1-32.5-.2-21 21.7-64.9 23.9-28.7 1.4-74.8 1.7-100.4 1.1-55.4-1.8-29.9-25.1-72.9-25h-43.4C45.7.1-2 319.5 56.7 319.4c31.4.1 56 1.1 92 0 50.8-1.6 56.2-91.6 107.4-91.6 25.9-.1 27 0 44.9 0 34 0 53.6 91.4 96.8 92.3 23 .5 66.2 0 92.3 0 59.5.4 16.4-318.4-52.5-320zM225.3 123.2c0 10.1-8.2 18.4-18.4 18.4h-23.6c-2.9 0-5.2 2.4-5.2 5.2v36.8c0 2.9-2.3 5.2-5.2 5.2h-12.3c-10.1 0-18.4-8.2-18.4-18.4v-23.7c0-2.9-2.4-5.2-5.2-5.2h-34.8c-2.9 0-5.2-2.3-5.2-5.2v-10.5c0-10.1 8.2-18.4 18.4-18.4H137c2.9 0 5.2-2.4 5.2-5.2V65.4c0-2.9 2.4-5.2 5.2-5.2h12.3c10.1 0 18.4 8.2 18.4 18.4v23.6c0 2.9 2.4 5.2 5.2 5.2H220c2.9 0 5.2 2.4 5.2 5.2l.1 10.6zm115.9 24.7c-12 .1-21.8-9.5-21.9-21.5s9.5-21.8 21.5-21.9 21.8 9.5 21.9 21.5v.2c.1 12-9.5 21.7-21.5 21.7zm43.6 44.2c-12 .1-21.8-9.5-21.9-21.5-.1-12 9.5-21.8 21.5-21.9 12-.1 21.8 9.5 21.9 21.5v.2c.1 11.9-9.6 21.6-21.5 21.7zm.2-88.2c-12 .1-21.8-9.5-21.9-21.5-.1-12 9.5-21.8 21.5-21.9 12-.1 21.8 9.5 21.9 21.5v.2c.1 11.9-9.6 21.6-21.5 21.7zm43.1 43.8c-12 .1-21.8-9.5-21.9-21.5-.1-12 9.5-21.8 21.5-21.9 12-.1 21.8 9.5 21.9 21.5v.2c.1 11.9-9.6 21.6-21.5 21.7z" id="Calque_5"/><path class="st0" d="M329.7 374h22c2.8 0 4.4 2.4 4.8 7.1l.4 62.7h8.9l.4-10.8c0-3.6 1.6-5.6 4.8-6.2h15.4l-.7-47.7c.7-3.4 2.2-5 4.5-5h22c2.8 0 4.4 2.4 4.8 7.1v68.5c0 4.3-1.3 7-3.9 8h-16.4v16.7H411c3.8 0 5.6 2.5 5.6 7.4v36.4c-.3 4.8-1.9 7.1-4.8 7.1h-22c-2.2 0-3.7-1.7-4.5-5v-14.8h-13.6c-4.4 0-6.5-1.9-6.5-5.6l.4-24.9h-8.9l-.4 42.4c0 4.3-1.3 6.9-3.9 8h-22.9c-2.2 0-3.7-1.7-4.5-5V379c1-3.4 2.5-5 4.7-5zm108.1 0h22c2.3 0 3.8 1.7 4.5 5v65h29.4v-65c.7-3.4 2.2-5 4.5-5h22c2.3.3 4.1 2.1 4.5 4.5v92c-.3 2.3-2.1 4.1-4.5 4.5h-25.6v45c-.5 3.6-2.2 5.3-5 5.3h-21.4c-2.7 0-4.3-2-4.8-5.9v-44.5h-25.5c-2.3-.3-4.1-2.1-4.5-4.5v-92c.3-2.3 2.1-4.1 4.4-4.4zM0 381.4v136.8c.4 4.8 2 7.2 4.8 7.2h81.6c2.8 0 4.5-2 5.1-6.2V458c0-4.3-2.2-6.5-6.5-6.5H47c-4.4.6-6.5 2.5-6.5 5.5v16.7c0 2.9 1.8 4.7 5.3 5.5h14.5v10.6H31.2v-80h29.1v15.4c0 5.2 2 7.9 5.9 7.9h18.7c4.3 0 6.5-2.2 6.5-6.5V381c-.3-4.7-2.2-7.1-5.6-7.2H6.4c-4.3.1-6.4 2.6-6.4 7.6zm108.1-1.1v138.8c.5 4.1 2.2 6.2 5 6.2h82.5c2.6-1.3 3.9-3.7 3.9-7.2v-49.4c0-5-2.2-7.5-6.5-7.5h-18c-4.4 0-6.5 2.2-6.5 6.5v22h-29.1l-.4-14.5h14.5c3.6-.6 5.3-2.6 5.3-5.8l.4-20.7c0-3-2.2-4.8-6.5-5.5h-13.3v-33.5h29.1v16.8c0 4.3 2.2 6.5 6.5 6.5h18c4.4 0 6.5-2.5 6.5-7.5v-44.1c0-5-2.1-7.5-6.4-7.5h-79.4c-3.2 0-5 2.1-5.6 6.4zM283 433h18.1c4.3 0 6.5-2.5 6.5-7.5v-44.1c0-5-2.2-7.5-6.5-7.5h-79.4c-3.1 0-5 2.2-5.6 6.5v138.8c.5 4.1 2.2 6.2 5 6.2h82.5c2.6-1.3 3.9-3.7 3.9-7.2v-49.6c0-5-2.2-7.5-6.5-7.5h-18c-4.4 0-6.5 2.2-6.5 6.5v22.2h-29.1l.4-14.5h14.5c3.6-.6 5.4-2.6 5.3-5.8l-.4-20.7c0-3-2.2-4.8-6.5-5.5h-13.4v-33.5h29.1v16.8c0 4.2 2.2 6.4 6.6 6.4z"/></svg>