<svg width="256" height="297" viewBox="0 0 256 297" fill="none" xmlns="http://www.w3.org/2000/svg">
<g clip-path="url(#clip0_304_12)">
<path d="M40.1702 129.72C31.5062 133.795 8.5782 152.139 4.1622 157.574C-0.423803 163.009 -1.7828 154.517 2.9722 140.42C6.7082 129.04 16.2212 113.584 32.1862 100.337C41.5262 92.6941 62.0782 81.6541 74.6462 75.2001C77.1942 73.8401 110.144 59.9141 139.527 52.9501C142.075 52.2701 136.47 57.1961 135.62 59.9141C131.204 72.8221 43.0552 128.191 43.0552 128.191L40.1692 129.72H40.1702ZM164.324 285.466C165.852 294.638 164.494 295.317 154.984 296.506C145.472 297.696 138.508 294.128 135.961 291.751C133.412 289.371 132.904 284.108 135.451 279.352C136.981 276.295 138.509 275.276 139.359 271.539C140.207 267.973 140.887 267.123 141.566 265.765C142.245 264.575 142.416 263.385 142.585 255.064C142.755 246.742 142.585 231.116 143.435 224.493C144.285 217.699 173.667 227.549 173.667 227.549C173.667 227.549 166.703 244.873 164.835 249.119C162.967 253.366 163.137 261.518 163.137 263.216C163.137 264.915 162.457 268.311 161.947 268.481C161.438 268.651 163.647 273.067 162.627 275.615C161.947 277.993 164.155 284.108 164.324 285.466V285.466ZM175.534 25.7751C174.514 19.3211 175.534 6.58111 176.893 4.54511C181.139 -1.23089 203.558 -1.90989 208.314 4.88411C210.352 7.94111 210.182 15.0741 209.843 19.6601C209.503 24.2461 208.314 34.0971 208.144 37.3251C207.975 39.7031 183.347 43.4381 177.912 36.9851C176.383 35.2871 175.534 25.7751 175.534 25.7751V25.7751ZM225.468 268.99C235.829 276.465 243.811 277.823 249.076 280.54C254.341 283.259 252.983 288.524 244.151 290.052C237.017 291.411 225.808 288.693 218.335 288.693C210.862 288.693 194.217 289.543 189.801 286.486C184.706 282.919 186.913 276.295 186.913 276.295C188.273 272.559 191.668 264.235 190.649 257.442C189.63 250.649 188.271 246.912 185.724 240.628C183.176 234.344 181.309 218.888 183.687 218.038C186.065 217.188 185.385 218.038 188.442 218.718C191.499 219.396 194.896 220.416 201.52 220.416C208.144 220.416 215.447 219.396 217.995 218.887C220.543 218.378 222.581 217.867 221.731 223.133C220.882 228.398 218.335 238.249 218.165 245.893C217.995 253.536 217.995 262.368 218.505 263.896C219.014 265.425 222.751 267.123 225.468 268.991V268.99Z" fill="black"/>
<path d="M189.122 42.759C170.44 58.895 134.262 63.309 80.592 84.031C66.835 89.296 30.149 105.091 21.317 121.567C51.039 104.413 62.079 128.021 64.457 152.308C66.664 175.067 78.044 186.957 107.257 186.276C137.32 185.598 146.491 203.091 154.813 223.643C170.948 145.004 196.765 129.719 213.409 116.302C248.737 87.597 205.257 36.984 189.122 42.759Z" fill="#88CE02"/>
<path d="M189.122 42.759C144.283 58.384 99.954 62.29 47.812 94.39C35.414 102.033 9.25799 119.357 4.16199 152.477C23.184 131.416 67.173 104.921 121.014 88.107C148.189 79.614 168.061 74.01 192.179 64.667C190.481 53.797 190.481 49.551 189.122 42.757V42.759Z" fill="#88CE02"/>
<path d="M246.359 135.833C246.359 135.833 243.132 146.873 236.678 150.441C236.678 150.441 231.923 152.139 222.412 146.874C219.694 145.346 217.656 140.081 217.825 138.381C217.995 134.305 220.543 132.437 220.543 132.437C220.543 132.437 223.261 127.851 226.487 128.021C229.715 128.191 235.15 128.7 236.849 127.171C238.376 125.473 246.699 130.228 246.359 135.833V135.833ZM177.063 29.002C177.063 29.002 176.384 37.664 175.195 43.099C175.025 44.119 169.93 44.627 166.193 46.156C173.326 66.537 216.297 66.367 221.903 56.346C219.185 54.479 213.75 51.591 211.203 50.572C208.654 49.552 208.824 49.722 208.654 44.967C208.484 40.211 208.144 31.38 207.804 29.002C207.464 26.623 181.139 26.623 177.063 29.002Z" fill="black"/>
<path d="M178.761 29.002C178.761 29.002 178.761 33.927 178.251 38.682C178.083 40.891 177.913 42.249 177.573 43.947C177.403 44.967 183.348 49.042 185.046 58.044C193.199 76.217 212.052 67.216 219.864 58.554C217.147 56.685 212.731 54.138 207.636 52.1C205.088 51.08 206.276 48.873 206.107 44.118C205.937 39.362 205.257 32.398 204.918 29.85C204.578 27.303 182.838 26.623 178.761 29.002V29.002Z" fill="#EFEFEF"/>
<path d="M177.063 29.002C177.063 29.002 176.893 32.059 176.384 35.626C178.591 37.833 181.479 40.891 183.688 42.759C185.216 44.119 188.952 43.949 192.35 43.949C195.407 43.949 198.124 44.288 199.313 43.609C202.032 42.249 205.937 38.853 208.145 36.305C207.976 33.248 207.806 30.361 207.637 29.002C207.465 26.623 181.139 26.623 177.063 29.002V29.002Z" fill="black"/>
<path d="M192.519 41.91C190.48 41.91 188.102 41.74 186.234 41.4C185.384 41.23 184.536 40.721 183.856 40.381C182.667 39.531 181.478 38.513 180.121 37.493C177.402 35.455 177.233 34.266 177.233 33.758C178.422 23.057 176.893 14.056 176.893 14.056C176.893 14.056 175.703 9.469 182.158 8.28C188.612 7.091 192.518 6.922 192.518 6.922C192.518 6.922 196.595 6.922 202.878 8.28C209.333 9.47 208.144 14.056 208.144 14.056C208.144 14.056 206.615 23.057 207.804 33.758C207.804 34.266 207.635 35.455 204.917 37.493C202.539 39.192 200.671 41.06 198.803 41.4C196.934 41.74 194.556 41.91 192.519 41.91V41.91Z" fill="black"/>
<path d="M192.519 2.50598C181.309 2.50598 179.101 5.56298 175.874 8.95998C175.195 9.80898 175.704 14.904 176.894 25.775H178.422C178.422 25.775 177.402 22.717 177.572 19.15C177.742 15.584 178.422 15.754 177.912 14.904C177.232 13.884 175.874 12.186 178.932 10.488C181.988 8.78998 186.744 11.847 192.519 12.017C198.293 11.847 203.219 8.78998 206.276 10.488C209.333 12.186 207.974 13.885 207.296 14.904C206.616 15.924 207.465 15.584 207.635 19.15C207.805 22.717 206.785 25.775 206.785 25.775H208.314C209.333 14.905 210.012 10.149 209.503 9.29898C206.615 5.56298 203.728 2.67498 192.519 2.50598V2.50598ZM246.359 136.343C246.359 136.343 243.132 146.703 236.849 150.27C235.489 149.59 235.659 148.572 234.469 147.043C234.129 146.534 232.941 146.193 232.432 145.684C231.922 145.174 232.092 144.325 231.242 143.646C230.563 142.966 230.054 143.476 229.374 142.966C228.696 142.288 228.524 141.438 228.016 140.93C227.676 140.59 226.317 140.42 225.978 140.08C225.128 139.23 217.656 137.702 217.996 136.003C218.674 133.455 220.034 131.587 220.034 131.587C220.034 131.587 223.261 126.832 226.487 127.001C229.714 127.171 232.771 127.851 234.47 126.322C236.339 124.623 246.87 130.908 246.359 136.342V136.343Z" fill="black"/>
<path d="M224.28 61.272C224.28 61.272 234.98 58.724 242.283 65.688C249.587 72.822 249.076 81.653 246.869 87.088C248.737 89.296 252.134 95.41 249.587 102.714C260.797 112.224 255.871 126.832 245.85 136.513C245.85 136.513 243.472 127.681 233.961 127.171C234.301 123.775 225.129 121.057 229.375 112.225C222.921 110.696 223.091 106.28 222.072 100.845C221.222 95.41 224.279 61.272 224.279 61.272H224.28Z" fill="black"/>
<path d="M220.373 66.028C220.373 66.028 232.771 59.744 240.075 66.878C247.378 74.011 245.339 81.823 243.132 87.258C245 89.465 249.416 95.751 246.698 103.223C246.188 104.922 242.452 104.922 239.734 109.338C246.527 105.43 250.774 106.45 252.303 111.375C254.681 119.018 249.415 128.189 244.83 133.285C244.83 133.115 244.66 132.945 244.66 132.775C243.98 135.324 243.131 140.248 238.036 145.683C235.488 148.401 233.45 148.062 230.563 147.382C227.166 146.532 225.977 145.003 221.222 142.457C218.504 140.928 220.032 139.059 220.032 137.531C220.032 137.191 220.372 136.681 220.882 136.003C221.222 135.153 222.241 133.795 223.769 132.266C223.769 132.266 225.977 129.209 229.205 129.378C232.432 129.548 235.828 128.87 236.678 128.02C236.678 122.076 229.885 121.905 232.262 111.715C232.432 111.205 233.282 110.355 235.998 110.016C231.922 109.166 230.054 108.996 227.166 106.28C225.128 104.412 223.6 102.034 223.09 98.977C222.071 93.712 220.373 66.027 220.373 66.027V66.028Z" fill="#EFEFEF"/>
<path d="M184.536 55.328C183.516 53.968 178.252 47.175 168.231 44.458C165.343 43.608 163.475 45.986 160.589 47.685C159.739 47.175 156.002 45.477 153.964 46.665C151.926 47.853 150.568 49.043 148.529 49.892C147.509 49.382 144.793 49.382 142.585 50.232C140.377 50.911 136.98 52.439 133.753 56.855C131.715 64.159 169.759 58.723 169.759 58.723L184.536 55.328V55.328Z" fill="black"/>
<path d="M184.876 55.328C179.44 53.459 180.29 47.175 168.231 46.156C165.853 45.986 164.324 47.854 162.626 49.043C163.476 49.893 164.324 51.251 164.834 52.609C163.305 50.912 160.588 48.703 157.869 48.193C155.322 47.685 153.623 49.553 150.906 50.912C151.415 51.42 151.925 52.27 152.604 53.29C150.225 51.761 148.528 51.252 145.301 52.44C143.093 53.119 138.847 54.988 135.62 59.574C133.582 66.877 169.928 58.724 169.928 58.724L184.876 55.328V55.328Z" fill="#88CE02"/>
<path d="M216.807 58.045C216.807 58.045 216.807 56.177 216.637 54.479C216.637 54.139 215.278 53.289 215.278 52.95L214.938 52.61C214.938 52.61 217.656 51.082 219.694 51.931C221.901 52.611 223.09 55.498 223.09 55.498C226.997 54.14 227.336 55.668 229.205 57.706C233.282 56.856 233.79 58.385 236.339 62.122C236.339 62.122 233.282 61.612 227.337 62.631C221.562 63.479 216.807 57.875 216.807 58.045Z" fill="black"/>
<path d="M216.127 57.196C216.127 57.196 217.146 56.346 216.806 56.176C218.674 55.156 221.222 53.969 222.411 57.196C226.317 55.836 226.827 57.706 228.695 59.744C233.45 57.536 233.789 60.252 234.13 61.442C232.601 61.442 230.394 61.612 227.336 61.951C221.562 62.801 215.956 57.025 216.126 57.196H216.127Z" fill="#88CE02"/>
<path d="M158.38 52.95C158.38 52.95 168.061 56.346 176.214 55.836C184.367 55.158 198.294 54.478 205.766 58.894C205.766 58.894 213.409 56.176 220.543 58.044C227.677 59.912 240.755 72.141 236.849 85.049C236.509 85.899 234.301 87.257 231.753 88.107C231.753 88.107 233.113 93.882 230.734 98.637C228.356 103.223 223.091 112.055 222.921 124.284C222.751 126.322 222.412 130.568 222.072 132.605C208.824 132.097 188.443 127.17 168.402 127.511C168.571 125.303 168.741 123.944 168.912 121.736H169.42C168.4 116.131 168.061 113.243 167.042 108.998C160.588 104.922 153.793 100.166 148.02 91.164C142.415 82.162 158.38 52.95 158.38 52.95V52.95ZM223.94 144.665C223.94 144.665 234.47 182.371 222.072 198.167C222.072 198.167 223.94 205.47 219.694 213.283C219.014 216.679 218.164 219.737 217.656 223.133C215.448 237.23 211.711 243.174 210.692 265.763L200.501 265.594C200.501 265.594 199.311 249.289 195.745 240.627C193.708 235.702 185.724 229.077 186.065 222.454C186.405 217.359 187.423 213.113 196.086 206.318C196.765 196.468 186.914 187.126 188.443 150.44L223.94 144.665V144.665Z" fill="black"/>
<path d="M220.883 143.136C223.601 160.46 229.885 186.106 218.505 198.675C219.014 201.053 219.354 204.45 218.675 208.355C218.335 210.393 217.655 212.601 216.807 214.979C215.108 219.055 214.428 224.999 213.919 228.566C211.711 242.663 211.711 243.344 210.692 265.933L200.501 265.763C200.501 265.763 199.311 249.458 195.745 240.796C193.708 235.871 189.461 231.625 189.122 225.001C188.782 219.906 192.349 209.716 200.842 210.055C200.332 189.504 190.82 193.58 188.273 150.779L220.883 143.136V143.136ZM158.38 52.95C158.38 52.95 162.117 54.139 166.193 54.478C170.269 54.818 174.686 54.478 178.591 54.308C186.744 53.629 198.293 52.78 205.936 57.196C205.936 57.196 210.182 55.836 214.769 56.176C216.807 56.346 218.845 58.044 221.223 58.724C228.696 60.592 235.829 72.99 232.601 84.201C232.261 85.051 229.884 84.201 227.166 85.051C227.675 87.428 228.016 92.863 225.298 98.638C222.411 104.413 218.674 111.886 219.353 126.153C201.52 125.303 193.537 124.115 175.873 123.266C174.344 116.981 173.325 110.696 173.155 107.47C175.534 106.28 176.891 105.263 178.761 103.224C173.666 104.074 171.627 103.734 168.569 102.034C165.512 100.336 160.077 94.901 157.359 91.335C157.02 90.995 155.153 96.599 150.907 96.77C149.377 94.562 155.831 88.277 154.642 85.9C150.397 77.237 158.38 52.95 158.38 52.95V52.95Z" fill="#EFEFEF"/>
<path d="M222.24 129.04C222.24 129.04 222.58 135.154 222.58 136.682C222.58 138.381 223.94 143.475 224.109 145.854C222.241 149.081 214.089 156.384 199.312 159.102C184.705 162.159 165.343 139.23 165.343 139.23C165.853 137.022 167.551 130.568 168.74 127.171C168.91 126.831 169.25 125.982 169.25 125.643C170.779 123.435 222.24 129.039 222.24 129.039V129.04Z" fill="black"/>
<path d="M218.505 129.55C218.505 133.795 219.184 136.853 219.695 139.57C220.543 144.496 221.901 147.723 221.901 150.95C221.901 160.8 208.993 159.102 198.122 159.442C183.516 162.5 171.118 139.571 171.118 139.571C172.136 135.664 172.816 131.249 174.344 127.511C174.514 125.474 174.854 122.926 175.024 121.737C195.744 121.737 210.351 122.927 218.844 123.774C219.184 125.643 218.844 128.87 218.505 129.549V129.55Z" fill="#EFEFEF"/>
<path d="M202.2 151.459C202.2 151.459 193.198 131.417 166.192 137.363C159.739 155.535 151.076 176.427 156.682 199.016C151.076 206.659 144.622 210.906 144.622 225.002C144.622 239.099 145.302 241.477 145.302 241.477L165.173 242.497C165.173 242.497 171.627 234.175 174.174 225.173C174.854 222.624 175.534 218.039 175.024 212.774C175.703 211.755 178.59 209.378 178.931 204.792C178.931 204.792 188.611 199.697 194.217 187.298C199.483 176.086 198.123 166.405 202.199 151.458L202.2 151.459Z" fill="black"/>
<path d="M202.2 151.459C201.69 149.591 194.896 131.248 169.76 136.682C154.983 176.086 160.418 192.392 162.626 199.524C152.604 212.262 148.019 214.98 150.058 240.796H163.306C169.42 231.116 170.779 227.548 171.118 214.81C171.118 214.3 169.251 215.83 167.891 217.528C168.911 212.263 171.798 211.244 174.006 208.017C175.025 206.657 175.874 204.62 175.874 201.902C187.763 193.92 192.179 183.899 194.726 173.538C196.765 166.405 199.142 154.686 202.199 151.458L202.2 151.459Z" fill="#EFEFEF"/>
<path d="M160.248 124.114C160.248 124.114 164.834 124.284 168.911 125.643C172.818 127.001 172.818 127.85 174.346 129.549C175.875 131.249 179.611 133.795 178.932 136.343C178.592 137.702 177.743 138.041 176.554 139.23C176.044 139.74 172.307 143.816 171.459 144.325C170.949 144.665 170.269 145.175 169.76 145.515L167.213 147.213C165.514 148.063 164.325 148.572 162.457 148.402C162.457 148.402 158.211 148.232 155.493 145.345C155.493 145.345 155.153 143.985 155.833 143.307C155.833 143.307 152.266 140.249 151.247 138.211C150.227 136.174 150.227 133.287 150.907 131.758C151.247 130.228 157.87 125.982 160.248 124.114V124.114ZM164.495 289.372L163.985 293.619C163.985 293.619 162.457 295.487 151.078 295.317C139.528 295.147 136.471 291.581 135.452 289.712L134.773 285.296C134.773 285.296 136.981 282.069 137.491 282.069C141.227 282.409 153.966 287.504 162.798 288.863C163.645 288.863 163.815 289.202 164.495 289.373V289.372ZM189.122 280.71C189.122 282.578 188.952 282.578 188.952 284.447C190.99 285.975 196.086 286.825 205.766 286.654C219.863 286.314 232.941 290.901 248.906 288.182L249.076 285.125L247.548 284.956L190.99 280.37L189.122 280.71Z" fill="black"/>
<path d="M201.52 286.655H205.766C214.939 286.315 223.601 288.353 232.941 288.863C237.867 288.693 243.981 287.503 243.472 283.937L195.237 279.86C192.349 283.087 194.557 285.805 201.52 286.655V286.655ZM146.151 215.15C147.68 216.17 158.041 222.284 174.855 221.434C174.515 224.661 174.685 230.946 167.212 241.985C163.475 247.42 160.247 256.932 159.569 268.991C159.739 271.709 161.267 274.086 159.229 277.653C159.909 279.86 162.626 284.277 163.985 286.994C165.343 289.712 166.023 292.769 157.02 292.939C147.849 293.109 133.072 292.089 135.111 284.957C136.131 281.22 139.018 277.314 139.358 275.785C139.698 274.256 139.698 269.671 142.584 266.613C145.132 258.121 144.283 249.969 143.774 242.326C142.924 234.342 142.754 221.605 146.151 215.151V215.15ZM161.947 76.728C174.006 60.592 163.815 47.685 144.454 51.59C136.64 53.119 128.828 58.555 128.318 68.405C125.77 68.745 119.996 69.084 117.108 79.615C114.901 87.767 113.712 89.295 109.805 93.371C107.257 96.259 109.975 102.203 111.843 106.451C118.127 121.057 137.489 122.415 150.567 133.455C154.983 132.266 159.569 127.341 160.927 124.115C149.887 111.035 152.265 105.941 147.849 99.147C152.605 97.447 163.475 90.825 161.947 76.727V76.728Z" fill="black"/>
<path d="M159.569 75.709C160.247 74.689 161.437 72.482 161.947 71.632C162.117 71.462 163.985 74.689 164.155 74.52C168.74 67.046 169.929 56.176 164.664 55.157C163.474 54.987 161.267 54.478 159.399 53.797C156.002 52.609 152.945 52.609 147.509 53.628C140.037 54.987 132.564 60.422 132.564 68.235C132.564 68.745 137.828 70.273 139.357 76.558C136.809 72.99 132.393 69.084 127.127 72.481C121.523 76.047 124.41 84.2 116.937 92.691C114.389 95.579 114.729 98.976 117.447 105.77C121.862 116.47 142.753 122.245 154.133 132.435C156.85 131.246 158.718 128.529 160.077 126.491C152.434 118.508 149.377 111.035 147.169 105.6C144.452 99.316 141.394 95.75 135.449 90.992C138.507 92.182 140.886 93.37 142.243 94.389C143.771 95.409 145.979 95.579 148.018 94.899C155.323 92.353 159.229 82.162 159.568 75.709H159.569Z" fill="#EFEFEF"/>
<path d="M233.451 78.426C232.941 84.88 228.186 81.653 225.639 80.464C220.543 78.256 215.447 76.728 209.503 76.728C203.558 76.728 195.915 77.238 189.292 78.936C180.121 81.483 177.402 81.314 173.326 79.275C169.251 77.067 162.118 71.632 162.118 71.632C162.118 71.632 161.948 73.331 163.646 75.539C165.853 78.256 170.78 81.653 177.403 83.86C180.63 84.88 183.178 84.2 186.066 83.521C201.182 79.785 217.146 79.105 230.564 87.257C231.244 87.597 233.622 86.577 234.641 85.049C235.998 82.842 233.451 78.426 233.451 78.426V78.426Z" fill="black"/>
<path d="M156.172 143.136C157.531 143.986 159.229 144.496 161.097 146.024C161.097 146.024 159.569 146.024 158.89 145.345C158.04 144.835 156.342 143.307 156.172 143.136V143.136Z" fill="#001423"/>
<path d="M205.257 8.44998C204.747 6.92198 201.01 4.20398 192.349 4.20398C183.007 4.20398 180.289 7.09098 180.121 8.61998C180.121 9.12998 179.441 14.565 179.271 16.772C179.271 16.772 179.271 19.49 179.441 23.566C179.611 26.283 180.29 27.812 180.629 31.379C180.969 35.114 181.989 37.493 183.856 40.55C184.706 41.059 185.385 41.57 186.234 41.74C189.631 42.418 195.576 42.588 198.803 41.74C200.671 41.23 203.049 38.003 203.558 35.115C204.238 31.549 204.917 29.001 205.087 26.793C205.427 24.586 205.597 19.66 205.766 18.301C206.276 14.565 205.426 8.78998 205.256 8.45098L205.257 8.44998Z" fill="#EFEFEF"/>
<path d="M187.423 218.378C187.423 218.378 196.426 222.284 218.675 218.887C218.675 218.887 212.391 250.478 215.279 266.273C215.279 266.273 218.166 270.35 239.566 278.162C239.566 278.162 249.077 280.54 248.738 285.296C248.738 285.296 249.078 286.316 237.528 285.975C225.98 285.635 215.108 283.597 207.466 283.597C199.823 283.597 191.67 283.937 190.312 281.729C188.783 279.691 190.652 274.425 192.859 271.368C195.239 268.142 194.558 265.763 194.389 259.989C193.877 244.873 182.328 229.248 187.423 218.378Z" fill="black"/>
<path d="M185.555 221.265C184.365 222.964 185.724 229.417 187.423 235.702C189.121 241.985 192.858 245.722 193.707 256.082C194.557 266.272 194.727 267.632 191.839 273.576C188.951 279.519 188.102 284.956 198.122 285.126C208.142 285.296 213.579 284.956 223.769 286.485C233.96 288.013 237.527 288.522 243.132 287.674C248.737 286.824 249.925 284.955 247.548 283.258C245.17 281.559 235.318 279.691 231.073 276.293C226.996 273.236 215.447 268.141 215.278 266.783C214.768 262.196 214.598 245.552 215.448 240.117C216.297 234.681 217.485 226.869 217.825 224.831C218.165 222.793 219.863 220.754 216.975 221.434C214.089 222.112 203.219 223.642 195.066 223.132C186.914 222.623 186.066 220.755 185.555 221.265V221.265Z" fill="#88CE02"/>
<path opacity="0.3" d="M191.33 273.747C194.217 275.105 198.464 276.125 201.69 276.125C201.69 276.125 200.5 281.73 202.37 285.126C204.237 288.523 188.782 286.486 188.782 286.486L188.103 274.426L191.33 273.746V273.747ZM236.339 288.353C239.056 287.503 240.925 284.447 238.717 281.56C236.339 278.672 234.301 278.163 237.357 277.993C240.415 277.823 251.625 284.617 251.625 284.617L245.849 289.882L236.339 288.353V288.353ZM185.045 227.888C188.952 229.248 194.896 229.587 199.992 229.417C205.087 229.247 212.73 228.567 217.656 226.869C222.581 225.171 220.543 228.737 220.543 228.737L217.825 231.285C217.825 231.285 211.372 233.833 200.842 233.664C188.443 233.494 184.706 232.135 184.706 232.135L185.046 227.888H185.045ZM185.385 236.381C189.292 237.741 195.235 238.08 200.331 237.91C205.426 237.74 212.221 237.74 217.146 235.872C219.184 235.192 217.996 238.08 217.996 238.08L217.146 239.608C217.146 239.608 210.522 241.986 200.161 241.815C187.763 241.646 185.555 240.626 185.555 240.626L185.385 236.381V236.381Z" fill="black"/>
<path d="M174.175 117.321C174.175 118.511 187.423 125.133 194.726 126.492C202.03 127.851 217.316 126.492 219.693 125.983L219.353 128.361C219.353 128.361 201.18 131.079 187.253 127.342C173.326 123.606 174.855 122.756 174.855 122.756L174.175 117.321V117.321Z" fill="black"/>
<path d="M145.811 262.197C147.849 263.217 155.153 265.084 159.908 264.065C160.587 263.895 159.908 252.345 161.777 247.081C164.494 239.777 168.91 233.833 170.947 220.925C163.814 220.245 155.662 218.377 151.415 217.018C145.981 233.663 147.85 247.93 145.811 262.197V262.197ZM157.192 272.897C158.381 273.237 159.229 274.595 159.57 273.747C160.248 272.217 158.38 269.331 158.21 267.293V267.123C156.682 265.765 146.322 265.595 147.001 266.273C145.812 268.481 143.944 268.142 143.265 272.558C142.926 274.765 145.644 272.898 148.19 272.728C143.605 275.784 138.34 279.692 137.49 283.088C136.471 287.843 138.17 289.203 143.265 291.751C147.682 292.77 152.946 292.94 157.022 292.77C161.608 291.92 162.458 289.713 161.099 286.655C159.059 282.069 157.701 276.125 157.192 272.897V272.897Z" fill="#EFEFEF"/>
<path d="M159.06 52.27C164.664 55.497 172.478 54.648 175.364 54.478C176.044 54.478 182.838 53.289 183.177 53.458C183.857 53.628 183.857 54.138 183.857 54.138C183.857 54.138 181.309 55.496 175.534 55.836C170.099 56.175 163.645 55.836 160.079 54.138C155.832 52.27 159.059 52.27 159.059 52.27H159.06ZM216.807 55.497C217.825 56.176 224.45 58.724 227.337 61.781C229.885 64.499 228.527 64.329 228.016 63.65C227.337 62.8 222.071 59.233 220.034 58.385C217.996 57.535 215.447 56.007 215.447 55.667C215.447 55.327 216.807 55.497 216.807 55.497V55.497Z" fill="black"/>
<path d="M158.21 125.982C163.135 125.642 168.23 126.832 171.458 130.228C173.156 131.927 175.874 133.794 175.534 135.493C175.534 136.003 174.514 137.362 173.667 138.381C173.157 139.059 171.629 140.588 171.118 141.098C170.44 141.608 168.061 143.476 167.552 143.816C167.042 144.156 166.362 145.006 165.853 145.175C164.156 146.025 162.287 145.345 160.589 144.496C158.891 143.646 160.929 143.476 159.06 142.118C154.475 138.891 151.926 136.682 153.795 130.398C153.965 129.209 155.832 127.85 158.21 125.982V125.982Z" fill="#EFEFEF"/>
<path opacity="0.4" d="M114.9 87.089C99.614 93.203 60.72 112.566 49.68 118.511C58.851 124.285 63.097 138.211 64.457 152.309C64.626 153.669 64.796 154.857 64.966 156.215C65.136 157.405 65.306 158.253 65.475 158.764C65.475 158.934 65.475 159.274 65.645 159.442C75.666 132.098 111.502 103.224 112.861 101.016C113.541 99.997 112.011 95.581 114.39 91.336C117.448 85.9 123.393 83.521 114.9 87.089V87.089ZM151.247 215.321C159.059 199.696 159.229 184.749 159.059 167.255C159.059 159.951 164.324 149.591 161.607 152.478C151.417 163.857 125.77 185.258 107.257 186.447C133.243 185.597 143.434 198.676 151.247 215.321V215.321Z" fill="black"/>
<path d="M34.733 132.946C44.414 125.983 94.518 99.318 106.578 95.581C118.636 91.674 114.899 87.088 114.899 87.088C114.899 87.088 65.984 108.148 36.771 126.322" fill="black"/>
<path opacity="0.4" d="M177.402 83.862C173.496 82.333 170.439 86.919 171.458 91.335C172.478 95.751 181.648 100.676 181.138 116.812C180.799 130.06 177.912 135.494 177.912 135.494L171.458 127.343C171.458 127.343 170.438 108.999 168.231 106.281C166.023 103.564 159.059 98.638 156.341 96.091C153.624 93.543 159.398 90.146 159.059 85.391C158.719 80.805 161.947 71.633 161.947 71.633L177.402 83.862V83.862ZM201.01 156.215C200.671 168.952 203.56 187.805 204.747 196.808C205.937 205.809 207.465 206.489 204.747 210.566C202.03 214.472 198.463 220.926 198.463 220.926L186.743 219.906C186.743 219.906 196.085 208.017 196.593 205.809C197.103 203.602 191.838 186.788 191.838 186.788L201.011 156.215H201.01ZM178.422 37.325C180.8 42.589 183.687 44.967 188.272 46.496C190.99 47.516 201.69 48.874 205.936 44.118C207.804 41.91 206.616 35.965 206.616 35.965L196.934 43.778L183.856 41.4L182.328 37.494L178.422 37.324V37.325Z" fill="black"/>
<path d="M179.44 49.044C183.856 51.931 194.896 54.649 197.953 55.158C201.01 55.837 205.936 51.931 208.313 50.912C210.862 49.723 215.278 49.044 220.373 53.63C220.883 54.14 219.183 56.347 219.183 56.347C219.013 56.177 217.995 56.177 216.635 55.497C215.277 54.819 214.088 54.308 212.05 54.479C203.557 55.497 202.199 58.385 194.726 56.686C187.253 54.986 185.385 53.629 178.082 53.968" fill="#88CE02"/>
<path d="M179.44 49.044C183.856 51.931 194.896 54.649 197.953 55.158C201.01 55.837 205.936 51.931 208.313 50.912C210.862 49.723 215.278 49.044 220.373 53.63C220.883 54.14 219.183 56.347 219.183 56.347C219.013 56.177 217.995 56.177 216.635 55.497C215.277 54.819 214.088 54.308 212.05 54.479C203.557 55.497 202.199 58.385 194.726 56.686C187.253 54.986 185.385 53.629 178.082 53.968" stroke="black" stroke-width="1.586" stroke-linejoin="round"/>
<path d="M177.912 49.553C183.517 51.931 194.387 54.479 197.444 55.158C200.5 55.838 205.426 52.78 207.804 51.252C212.051 48.534 217.485 50.742 220.034 53.63C221.731 55.497 222.412 56.687 222.412 57.196C222.412 57.875 220.374 57.196 220.374 57.196C219.184 56.686 217.825 56.517 216.807 55.836C215.448 55.158 214.089 54.139 212.052 54.308C203.559 55.328 201.861 58.215 194.558 56.516C187.255 54.818 185.386 53.289 177.574 53.798" fill="#88CE02"/>
<path d="M151.586 208.187C151.246 207.847 151.926 207.507 151.586 207.507C149.379 207.507 146.321 205.809 144.622 203.431C137.319 192.901 126.618 185.938 107.256 186.447C78.213 187.127 66.663 175.238 64.456 152.479C63.266 140.081 59.87 128.021 52.906 121.227L48.829 123.775C56.642 130.569 59.19 141.609 60.889 156.725C63.606 179.484 81.949 190.015 103.349 190.354C125.599 190.694 133.582 195.28 141.904 206.49C144.621 210.056 147.679 211.245 150.056 211.755L151.586 208.187V208.187Z" fill="black"/>
<path opacity="0.4" d="M230.394 98.978C230.904 101.525 232.262 106.451 234.979 108.828C236.169 110.017 236.339 110.356 235.319 110.356C234.299 110.356 226.827 110.017 226.827 110.017L224.789 106.451L230.394 98.978Z" fill="black"/>
</g>
<defs>
<clipPath id="clip0_304_12">
<rect width="256" height="297" fill="white"/>
</clipPath>
</defs>
</svg>
