<svg xmlns="http://www.w3.org/2000/svg" viewBox="0 0 512 512">
  <circle cx="256" cy="256" r="256" fill="#5e3c16"/>
  <path d="M511.222 235.949 407.631 132.358H360.41v43.693l24.199 24.199H360.41v39.592L252.925 132.358h-52.6l-95.956 246.361 132.576 132.577c6.292.461 12.645.704 19.055.704 141.385 0 256-114.615 256-256 0-6.749-.265-13.434-.778-20.051z" fill="#472e11"/>
  <path d="M351.57 378.719h-54.112l-21.51-55.961h-98.477l-20.334 55.961h-52.768l95.956-246.361h52.599l98.646 246.361zm-91.587-97.47-33.946-91.419-33.274 91.419h67.22zM360.41 176.051v-43.693h47.221v43.693H360.41zm0 202.668V200.25h47.221v178.468H360.41z" fill="#df871e"/>
</svg>
