<svg xmlns="http://www.w3.org/2000/svg" viewBox="0 0 512 512">
  <circle cx="256" cy="256" r="256" fill="#4f3030"/>
  <path d="M233.603 511.014c7.383.64 14.848.986 22.397.986 141.385 0 256-114.615 256-256 0-8.375-.415-16.653-1.202-24.822l-116.42-116.42h-53.721v100.944c-16.571-18.861-36.201-28.294-58.885-28.294-10.75 0-20.691 1.697-29.827 5.081l-77.732-77.732h-56.591v280.274l115.981 115.983z" fill="#241616"/>
  <path d="M117.622 395.032V114.758h56.591v280.274h-56.591zm276.756 0h-49.9v-29.824c-16.764 23.464-40.861 34.412-63.472 34.412-23.325 0-43.304-9.398-59.937-28.2-16.631-18.799-24.948-45.023-24.948-78.672 0-34.412 8.092-60.571 24.279-78.479 16.184-17.905 36.643-26.861 61.37-26.861 22.684 0 42.314 9.433 58.885 28.294V114.758h53.722v280.274zM250.991 289.116c0 21.669 2.994 37.346 8.985 47.031 8.665 14.023 20.775 21.031 36.325 21.031 12.36 0 22.876-5.257 31.544-15.773 8.668-10.515 13.001-26.222 13.001-47.127 0-23.324-4.206-40.115-12.617-50.377-8.411-10.258-19.183-15.391-32.309-15.391-12.747 0-23.422 5.067-32.025 15.2-8.602 10.134-12.904 25.27-12.904 45.406z" fill="#df3a5c"/>
</svg>
