<svg xmlns="http://www.w3.org/2000/svg" viewBox="0 0 480.07 480.07" xml:space="preserve">
  <path d="M184.034 328.032h-32v-32c0-4.418-3.582-8-8-8h-32c-4.418 0-8 3.582-8 8v32h-32c-4.418 0-8 3.582-8 8v32c0 4.418 3.582 8 8 8h32v32c0 4.418 3.582 8 8 8h32c4.418 0 8-3.582 8-8v-32h32c4.418 0 8-3.582 8-8v-32c0-4.418-3.582-8-8-8zm-8 32h-32c-4.418 0-8 3.582-8 8v32h-16v-32c0-4.418-3.582-8-8-8h-32v-16h32c4.418 0 8-3.582 8-8v-32h16v32c0 4.418 3.582 8 8 8h32v16z"/>
  <path d="M479.234 337.416c-6.136-55.128-57.912-106.704-113.088-112.584-4.686-.517-9.397-.784-14.112-.8h-88v-32h-16v-16c0-17.673-14.327-32-32-32h-40c-8.837 0-16-7.163-16-16s7.163-16 16-16h128c17.673 0 32-14.327 32-32s-14.327-32-32-32h-40c-8.837 0-16-7.163-16-16v-32h-16v32c0 17.673 14.327 32 32 32h40c8.837 0 16 7.163 16 16s-7.163 16-16 16h-128c-17.673 0-32 14.327-32 32s14.327 32 32 32h40c8.837 0 16 7.163 16 16v16h-16v32h-88c-4.72.011-9.437.278-14.128.8-55.2 5.92-106.944 57.496-113.064 112.624-8.037 70.234 42.383 133.686 112.618 141.723 28.6 3.273 57.468-3.191 81.942-18.346a78.3491 78.3491 0 0 1 35.112-12.408c6.19-.489 12.407-.511 18.6-.064a78.9451 78.9451 0 0 1 35.664 12.544c60.135 37.164 139.012 18.543 176.176-41.593 15.122-24.469 21.562-53.319 18.28-81.896zm-247.2-129.384h16v16h-16v-16zm203.48 218.672c-36.169 40.456-96.148 49.138-142.304 20.6a94.402 94.402 0 0 0-42.952-14.904c-3.376-.245-6.784-.368-10.224-.368-3.64 0-7.2.152-10.784.432a94.108 94.108 0 0 0-42.304 14.768c-52.602 32.545-121.627 16.287-154.173-36.315a112.0008 112.0008 0 0 1-16.027-71.685c5.264-47.376 51.456-93.392 98.88-98.488 4.12-.461 8.262-.698 12.408-.712h224c4.145.003 8.287.224 12.408.664 47.416 5.096 93.6 51.112 98.88 98.488 3.772 31.817-6.363 63.715-27.808 87.52z"/>
  <path d="M352.034 272.032c-17.673 0-32 14.327-32 32 0 17.673 14.327 32 32 32 17.673 0 32-14.327 32-32 0-17.673-14.327-32-32-32zm0 48c-8.837 0-16-7.163-16-16s7.163-16 16-16 16 7.163 16 16-7.164 16-16 16zM352.034 368.032c-17.673 0-32 14.327-32 32 0 17.673 14.327 32 32 32 17.673 0 32-14.327 32-32 0-17.673-14.327-32-32-32zm0 48c-8.837 0-16-7.163-16-16s7.163-16 16-16 16 7.163 16 16-7.164 16-16 16zM296.034 320.032c-17.673 0-32 14.327-32 32 0 17.673 14.327 32 32 32 17.673 0 32-14.327 32-32 0-17.673-14.327-32-32-32zm0 48c-8.837 0-16-7.163-16-16s7.163-16 16-16 16 7.163 16 16-7.164 16-16 16zM408.034 320.032c-17.673 0-32 14.327-32 32 0 17.673 14.327 32 32 32 17.673 0 32-14.327 32-32 0-17.673-14.327-32-32-32zm0 48c-8.837 0-16-7.163-16-16s7.163-16 16-16 16 7.163 16 16-7.164 16-16 16z"/>
</svg>
