<svg xmlns="http://www.w3.org/2000/svg" viewBox="0 0 512 512">
  <circle cx="256" cy="256" r="256" fill="#263364"/>
  <path d="M358.365 200.896c-3.076 1.955-6.348 4.972-9.815 9.046l-10.753-10.753h-44.549v74.864L151.473 132.279h-50.524v248.182L231.298 510.81c8.129.778 16.367 1.19 24.702 1.19 125.879 0 230.536-90.853 251.978-210.563l-97.297-97.297c-15.772-9.39-36.761-13.127-52.316-3.244z" fill="#151f45"/>
  <g fill="#c9e1f6">
    <path d="M100.949 380.461V132.279h50.524V338.3h125.628v42.16H100.949v.001zM341.211 380.461h-47.963V199.19h44.55v25.774c7.622-12.175 14.479-20.197 20.568-24.067 15.554-9.884 36.544-6.146 52.316 3.244l-14.85 41.818c-13.021-8.431-28.075-11.438-39.6-2.305-4.668 3.699-8.337 10.386-11.009 20.056-4.897 17.701-4.012 61.865-4.012 116.751z"/>
  </g>
</svg>
