<svg id="Calque_1" data-name="Calque 1" xmlns="http://www.w3.org/2000/svg" viewBox="0 0 1080 1080">
  <defs>
    <style>
      .cls-1{fill:#4169e1}
    </style>
  </defs>
  <path class="cls-1" d="M707.14 811.71q-18.63-10.25-18.62-21.42 0-8.38 10.24-25.14t23.28-27c1.87-1.23 3.57-.93 5.13.93s1.7 3.73.46 5.59a48.29 48.29 0 00-11.17 17.23q-3.74 9.78-1.87 17.23Q717.4 795 729 802.86t27.47 7.92a71 71 0 0016-1.7l34.27-34.76a53.89 53.89 0 00.92-10.1 68 68 0 00-8.39-33.06q-8.37-15.37-18.15-29.8t-17.7-28.87a63.79 63.79 0 01-7.91-31.19q0-24.21 18.16-41t48.88-16.76q18.63 0 31.2 6.05t12.57 13.51q0 10.25-4.19 23.28a120.33 120.33 0 01-8.85 21.41c-1.25 1.26-3 1.4-5.12.47s-3-2.33-2.32-4.19a52.72 52.72 0 003.72-14.9 39.06 39.06 0 00-.93-14.9q-4.68-18.62-26.08-18.62-15.84 0-25.6 9.31t-9.78 27.93a55.27 55.27 0 007.91 28.41q7.9 13.5 17.7 27a225.1 225.1 0 0117.69 28.87 71.29 71.29 0 017.53 25.51L1044.77 533l-244.3-240.91q-23.38 39.5-47.22 95-34 79.17-73.1 200.22 21.4-.93 45.16-.94h48.89c3.1 1.26 4.5 3 4.19 5.13s-3.26 3.88-8.84 5.12L723 598.46q-23.28.94-47.49 2.79a130.12 130.12 0 01-6.51 18.63q-38.19 122-78.22 204.4t-81.97 132.23Q496.65 971 484.38 983l59.18 58.36 216.37-219.5c-1.74.06-3.5.09-5.29.09q-28.87.05-47.5-10.24z"/>
  <path class="cls-1" d="M534.88 883.88q23.26-45.18 48.42-109.42t52.15-152.72a57.29 57.29 0 002.79-8.85 55.82 55.82 0 012.8-8.84q-15.85 1.88-31.66 4.19t-31.67 6c-3.11-.61-3.88-2.17-2.32-4.66s4.33-5 8.38-7.45a90.93 90.93 0 0114.43-7A67.31 67.31 0 01614 591q7.44-.91 15.37-1.4c5.26-.3 10.71-.77 16.29-1.39q33.52-100.58 72.17-182.06 34-71.64 71.22-125.3L536.44 31.76 35.23 540.1 475.31 974q7.2-7.85 14.41-17 21.89-28 45.16-73.12zM820.3 261.36q33-46.56 65.18-65.18T953 177.55q32.6 0 48 14.44t17.23 33a8.89 8.89 0 004.65 3.73c1.87.62 3.41 0 4.66-1.86a66.63 66.63 0 006.46-28.36 58.64 58.64 0 00-6-26.54 48.08 48.08 0 00-18.16-19.55Q997.68 145 980 145q-46.57 0-92.19 31.66t-88.47 89.86q-5.16 7-10.26 14.38l11.39 11.23q9.95-16.86 19.83-30.77z"/>
  <path class="cls-1" d="M446 1000.28q-21.87 15.36-43.77 21a177.81 177.81 0 01-44.23 5.59q-21.42 0-34.92-6t-20.49-14.9q-7-8.86-7.91-18.63a31.39 31.39 0 012.74-17.34 5.71 5.71 0 00-2.33-4.66c-1.54-1.25-3.26-.93-5.12.93a70.38 70.38 0 00-9.31 17.23 51.35 51.35 0 00-3.73 18.16q0 18.62 13.51 32.59t45.16 14q44.7 0 88-21 30.73-14.87 60.78-44.33l-9.07-8.92a184.26 184.26 0 01-29.31 26.28z"/>
</svg>
