<svg xmlns="http://www.w3.org/2000/svg" viewBox="0 0 500 500" xml:space="preserve">
  <path d="M341 363.45c-1.66 0-3.32 0-5-.09a180.161 180.161 0 0 0 9.4-37.36c2.21-17.32 19-71.1 19.09-71.33 10.17-27 42.4-51.37 44.6-53a.25.25 0 0 0 .09-.24L404.26 179a.22.22 0 0 0-.2-.18l-11.95-1.36a.22.22 0 0 1-.2-.18l-7.4-35.89a.23.23 0 0 0-.29-.18c-5.05 1.49-32.47 29-48.11 36.72S233.44 211 229.48 218.57c-3.8 7.28 10.27 31.31 11.41 33.24a.25.25 0 0 1 0 .24c-4.95 7.58-16 27.91-24.68 44.06-45.4207-68.6198-26.614-161.0679 42.0058-206.4885C293.801 66.067 337.7778 58.901 379 69.94a213.55 213.55 0 0 0-125.1-40.43c-118.6 0-214.74 96.14-214.74 214.74S135.32 459 253.92 459c97.88 0 180.3-65.54 206.18-155.08-28.1235 37.4757-72.2453 59.5292-119.1 59.53z" fill="#4169e1"/>
</svg>
