<?xml version="1.0" encoding="utf-8"?>
<!-- Generator: Adobe Illustrator 25.4.1, SVG Export Plug-In . SVG Version: 6.00 Build 0)  -->
<svg version="1.1" id="Calque_1" xmlns="http://www.w3.org/2000/svg" xmlns:xlink="http://www.w3.org/1999/xlink" x="0px" y="0px"
	 viewBox="0 0 500 500" style="enable-background:new 0 0 500 500;" xml:space="preserve">
<path d="M341,363.4500122c-1.6600037,0-3.3200073,0-5-0.0899963c4.4596252-12.0815735,7.6109619-24.6065063,9.3999939-37.3600159
	c2.2099915-17.3200073,19-71.1000061,19.0899963-71.3300018l0,0c10.1700134-27,42.3999939-51.3699951,44.6000061-53
	c0.0718384-0.057373,0.1064148-0.1495361,0.0899963-0.2400055L404.2600098,179
	c-0.0179443-0.098526-0.1001587-0.1725159-0.2000122-0.1799927l-11.9500122-1.3600006
	c-0.0998535-0.0074768-0.1820679-0.0814667-0.2000122-0.1799927l-7.3999939-35.8899994
	c-0.022644-0.1249847-0.142334-0.2079468-0.267334-0.1853027c-0.0076294,0.0013885-0.0151978,0.0031586-0.0226746,0.0053101
	c-5.0499878,1.4900055-32.4700012,29-48.1099854,36.7200012S233.4400024,211,229.4799957,218.5700073
	c-3.8000031,7.2799988,10.2700043,31.3099976,11.4100037,33.2400055c0.0409088,0.0747681,0.0409088,0.1652374,0,0.2400055
	c-4.9499969,7.5799866-16,27.9100037-24.6800079,44.0599976c-45.4206696-68.6197968-26.6140442-161.0678711,42.0057678-206.4885406
	C293.8009949,66.0669708,337.777832,58.9010582,379,69.9400024
	c-36.4107666-26.2969208-80.1859436-40.4442368-125.1000061-40.4300003
	c-118.6000061,0-214.7400055,96.1399994-214.7400055,214.7399902S135.3200073,459,253.9199982,459
	c97.8799896,0,180.3000031-65.5400085,206.1799774-155.0800171C431.9764709,341.3956909,387.8546753,363.4492188,341,363.4500122z"
	/>
</svg>
