<svg xmlns="http://www.w3.org/2000/svg" viewBox="0 0 512 512">
  <circle cx="256" cy="256" r="256" fill="#2a4997"/>
  <path d="M342.024 200.579c-20.439 0-36.104 3.74-47.02 11.198l-49.369-48.712c-7.682-8.162-16.786-13.633-27.325-16.394-15.173-4.068-51.41-3.312-124.527-3.312v220.746l147.461 147.461c4.885.278 9.802.434 14.756.434 118.463 0 218.117-80.472 247.32-189.728L398.909 217.861l-.005.005c-13.219-13.351-32.97-17.287-56.88-17.287z" fill="#263364"/>
  <path d="M93.783 364.106V143.36c73.118 0 109.354-.754 124.527 3.312 12.648 3.313 23.238 10.517 31.771 21.608 16.531 21.494 15.798 57.681 5.421 77.171-9.387 17.624-25.225 28.599-41.86 32.224-19.585 3.879-48.582 3.162-75.289 3.162v83.269h-44.57zm44.571-183.402v62.64c45.164 0 62.774 1.462 73.556-14.305 7.158-10.469 7.006-27.038-2.032-37.042-11.297-12.491-23.64-11.293-71.524-11.293zm130.49 137.777 42.463-6.476c3.952 18.007 16.096 25.147 34.18 25.147 13.798 0 30.266-3.461 30.266-17.317 0-9.314-7.79-11.366-17.166-13.551-34.131-7.529-55.765-14.404-64.898-20.629-12.649-8.632-18.972-20.629-18.972-35.988 0-13.853 5.47-25.497 16.412-34.934 10.94-9.435 27.906-14.154 50.895-14.154 34.939 0 61.006 8.391 70.771 42.312l-39.903 7.379c-1.708-6.222-4.945-10.992-9.712-14.305-10.901-7.572-35.916-5.742-44.345-.301-6.014 4.134-6.697 11.692-.602 16.262 12.251 9.032 64.603 12.323 86.732 30.718 8.833 7.529 13.251 18.02 13.251 31.47 0 14.658-6.124 27.254-18.37 37.795-12.249 10.54-30.368 15.811-54.358 15.811-21.785 0-39.025-4.416-51.723-13.251-12.701-8.833-21.006-20.829-24.921-35.988z" fill="#76c8da"/>
</svg>
