<?xml version="1.0" encoding="utf-8"?>
<!-- Generator: Adobe Illustrator 25.4.1, SVG Export Plug-In . SVG Version: 6.00 Build 0)  -->
<svg version="1.1" id="Calque_1" xmlns="http://www.w3.org/2000/svg" xmlns:xlink="http://www.w3.org/1999/xlink" x="0px" y="0px"
	 viewBox="0 0 500 500" style="enable-background:new 0 0 500 500;" xml:space="preserve">
<style type="text/css">
	.st0{fill:#FFFFFF;}
</style>
<path class="st0" d="M347.0599976,201.8600006c12.8800049,0.4799957,26.1300049,7.4299927,26.1300049,7.4299927
	c-0.9299927-13.9400024-17.6700134-31.7700043-17.6700134-31.7700043c2,1.1000061,3.8500061,2.1900024,5.5700073,3.2700043
	c-39.1385498-61.353981-120.6038361-79.3631516-181.9578247-40.2245941S99.7690201,261.16922,138.9075775,322.5232239
	c15.2063904,23.837677,37.6771698,42.151886,64.0924225,52.2367859C187.4900055,361.5,174,345.9700012,179.6199951,324.1700134
	c0,0,7.8899994,32.2600098,18.6999969,37.3200073c0,0-5.8600006-16,2.7100067-26.5700073
	c0,0-6.5599976,19.9500122,20.2200012,45.3299866c9.4391479,2.1002197,19.0800171,3.1598816,28.75,3.1600037
	c1.1900024,0,2.3800049,0,3.5599976-0.0499878c11.8699951-9.7799988,26.769989-26.6000061,29.9200134-51
	c0,0,6.3099976,16.3800049,1.1300049,29.7000122c0,0,35.3800049-20.4200134,34.480011-61.3200073
	c2.25,2.5299988,20.2799988,43.4299927-27,69.1499939c-9.069397,3.7210693-17.9351807,7.9202881-26.5599976,12.5799866
	C315.1957092,376.5715027,357.2500305,343.0837402,374.1199951,296c-7.5799866,13.2399902-20.5,26-37.2600098,37.4599915
	C356,298.4899902,342,266,342,266c20.2799988,14,13.5799866,36,13.5799866,36
	c23.4899902-15.1799927,18.25-56.9400024,18.25-56.9400024c3.8309937,5.5618896,6.3696289,11.9101562,7.4299927,18.5799866
	c0.3500061-3.9500122,0.5499878-7.9499969,0.5499878-12c-0.0016785-5.7043304-0.3691101-11.4026794-1.1000061-17.0599976
	C368.2999878,211.9199982,347.0599976,201.8600006,347.0599976,201.8600006z M271.3599854,132.3399963l-8.1499939,10.3500061
	c15.8658142-5.1649628,33.1824036-3.3055878,47.5899963,5.1100006c-38.75-10.3699951-67.0700073,11.7899933-67.0700073,11.7899933
	C245.5,135.6399994,271.3599854,132.3399963,271.3599854,132.3399963z M219.289978,143.9100037l-5.4100037-9.2700043
	c0,0,19.3800049,4.6300049,18.9299927,24.8800049c0,0-19.8300018-20.6699982-50-14.7599945
	c11.3458405-6.0192261,24.8661499-6.334259,36.4800262-0.8500061H219.289978z M151.289978,184.3899994
	c0,0-10.1900024,17.3800049-9.6000061,29.7799988c0,0,8.6999969-7.4299927,17.7099915-9.1100006
	c0,0-16.2200012,12.6499939-22.0800018,37.1000061C134.1100006,214.75,131,202.5299988,151.2400055,184.3899994H151.289978z
	 M167.9599762,326.9199829c-24.7799988-28.6700134-34.6999969-62-18-87.2900085c0,0-7.6699982,38.7999878,7.6600037,55.6600037
	c0,0-2.7100067-21.5,13.0699921-32.4599915c-0.0699768,0-13.1399689,29.0900269-2.7799683,64.0900269L167.9599762,326.9199829z
	 M177.3299713,167.3499756c-12.3500061,0.3800049-3.25,28.1900024-3.25,28.1900024
	c-19-13.25-13.5099945-34.8200073,1.5599976-42.6199951c13.2599945-3.3800049,17.4100037,5.4600067,16.8899994,7.5399933
	s0.2200317,9.1100311-15.2499695,6.8900299L177.3299713,167.3499756z M270.2000122,338
	C267.3400269,326.3599854,258.5,326.2399902,258.5,326.2399902c7.7999878,18.2000122-8.3200073,28.5899963-8.3200073,28.5899963
	c-2.6000061-3.6300049-3.1199951-25.4700012-3.1199951-25.4700012c-8.8300018,6.7600098-8.8300018,35.8699951-8.8300018,35.8699951
	c-15.0800018-5.2000122-11.4400024-35.480011-11.4400024-35.480011c-5.7299957,1.4299927-8.8399963,15.730011-8.8399963,15.730011
	c-11.9499969-10.3999939-1.6499939-26.25-1.6499939-26.25l-9.5200043,5.2000122l-2.6000061-10.3999939
	c-0.2599945-0.7799988,11.6999969-10.6600037,16.3699951-11.1799927S245,306,245,306
	c20.2799988,16.6400146,33.269989,13,33.269989,13C278.769989,326.7900085,270.2000122,338,270.2000122,338z
	 M313.0800171,231.6399994c-0.519989,2.0800018-10.9200134,24.4300079-21.3099976,34.8300018
	c0,0-17.1600037-8.8399963-19.7600098-8.8399963S293.3300171,275.8200073,293.3300171,280.5
	c0,4.3699951,4.0499878,27.6000061-28,26.2200012c-4.8939209-0.2112122-9.6563416-1.6485291-13.8500061-4.1799927
	c-27.5200043-16.6499939-13.6499939-23.1100159,3.4100037-31.3899841c14.0700073-10.4200134,7.3200073-7.75-0.1900024-5.8599854
	c-2.2532501,0.5735474-4.6381226-0.159668-6.1799927-1.8999939l-1.4299927-1.6000061c0,0-12.4700012,7.7999878-30.1399994-2.0799866
	l-0.1199951,0.1300049c-1.9367371,2.1930542-5.0644989,2.8912659-7.75,1.730011
	c-2.8099976-1.1799927-4.6699982-0.8299866,3.4199982,8.2200012c0.194046,0.2106018,0.4084167,0.4015198,0.6399994,0.5700073
	c16.3500061,11.7900085,21.9499969,18.2000122-2.0800018,28.7200012c-2.5980988,1.1246948-5.5802612,0.9196777-8-0.5499878
	c-27.4199982-16.6400146-7.6600037-35.5400085-1.6900024-43.5l-6.2400055,2.6000061c0,0-28-44.6999969,1.8399963-40.8000031
	c4.3999939,5.4499969,1.8000031,5.4499969,13.7599945,10.1300049l3.8999939,12.7400055
	c3.1100006-9.3600006,17.1499939-30.6699982-4.1600037-31.1900024S185,201.2301025,205.2700043,171.6000977
	s29.1100006,2.6000061,30.1499939,5.7200012s3.9100037,15.0700073,4.5500031,18.1900024s32.8699951-74.8499985,65.1000061-14
	c21.5700073,40.2799988-17.6700134,26-24.9500122,28.0700073s-20.5299988,0.2599945-23.6499939,34.5700073
	c0,0,12-12.9400024,13.7799988-15.5700073s8.5700073,6.5599976,24.4299927-5.3099976s18.9200134,6.3198853,18.3999939,8.3998871
	L313.0800171,231.6399994z M204.1800232,216.8300018c0-1.7299957,2.3300018-3.1199951,5.1999969-3.1199951
	s5.1999969,1.3899994,5.1999969,3.1199951s-2.3300018,3.1100006-5.1999969,3.1100006s-5.2000275-1.3600006-5.2000275-3.0800018
	L204.1800232,216.8300018z M282.1800232,222.4900055c-3.9400024,0.7700043-7.3900146,0.1499939-7.6900024-1.3999939
	s2.6499939-3.4400024,6.5899963-4.2100067s7.3900146-0.1499939,7.6900024,1.3999939s-2.6400146,3.4700012-6.5900269,4.2400055
	L282.1800232,222.4900055z M328.1800232,208.25c0,0,14.4200134-33.7799988,1.5700073-36.3300018
	c-19.1300049-0.0700073-19.1600037-7.7200012-19.3800049-10.4499969s8.8800049-14.2700043,24.25-7.5200043
	C353,160.4600067,353,194.7700043,328.1400146,208.2799988L328.1800232,208.25z"/>
<path class="st0" d="M250,100.4100037c-7.9344025,0.1000824-14.4502716-6.2457352-14.5599976-14.1800003V24.5499992
	c0.2107391-8.0440292,6.9025574-14.3941641,14.946579-14.1834259c7.7476654,0.2029753,13.9804535,6.4357681,14.1834259,14.1834259
	v61.6800041C264.4602966,94.1682281,257.9382935,100.5156631,250,100.4100037z"/>
<path class="st0" d="M250,488.480011c-7.9343872,0.1000977-14.4502563-6.2457275-14.5599976-14.1799927v-61.6800232
	c0.2107391-8.0440369,6.9025574-14.394165,14.946579-14.1834106c7.7476654,0.2029724,13.9804535,6.4357605,14.1834259,14.1834106
	v61.6799927C264.4602966,482.2382202,257.9382935,488.5856628,250,488.480011z"/>
<path class="st0" d="M476.4400024,259.1000061h-63.3800049c-7.8286438,0.2078857-14.3435364-5.9699402-14.5514221-13.798584
	s5.9699402-14.3435364,13.798584-14.5514221c0.2509155-0.0066681,0.5019226-0.0066681,0.7528381,0h63.3800049
	c7.8286438-0.2078857,14.3435364,5.9699402,14.5514221,13.798584s-5.9699402,14.3435364-13.798584,14.5514221
	C476.941925,259.1066589,476.690918,259.1066589,476.4400024,259.1000061z"/>
<path class="st0" d="M23.5599995,259.1000061h63.3800049c7.8286362,0.2078857,14.3435287-5.9699402,14.5514221-13.798584
	S95.5214767,230.9578857,87.6928406,230.75c-0.2509003-0.0066681-0.5019379-0.0066681-0.7528381,0H23.5599995
	c-7.8286381-0.2078857-14.3435316,5.9699402-14.5514221,13.798584s5.9699459,14.3435364,13.798584,14.5514221
	C23.0580635,259.1066589,23.3090973,259.1066589,23.5599995,259.1000061z"/>
<path class="st0" d="M134.6999969,146.8899994c-3.8446655,0.0106812-7.5411377-1.4822693-10.3000031-4.1600037
	l-44.8099976-43.609993c-5.52285-5.3320541-5.6775208-14.1316833-0.3454666-19.6545334
	c0.113121-0.1171722,0.2282944-0.2323456,0.3454666-0.3454666c5.7484055-5.542099,14.851593-5.542099,20.5999985,0L145,122.6900024
	c5.5228424,5.3320465,5.6775208,14.1316833,0.3454742,19.6545258c-0.1131287,0.1171722-0.228302,0.2323456-0.3454742,0.3454742
	C142.2475433,145.38237,138.550293,146.8899689,134.6999969,146.8899994z"/>
<path class="st0" d="M421.1099854,429.9299927c-3.8434448,0.0144043-7.5401306-1.4750061-10.2999878-4.1499939L366,382.1700134
	c-5.5366516-5.3256836-5.7076721-14.1313477-0.3819885-19.6679993c0.1248474-0.1297913,0.2521973-0.2571411,0.3819885-0.3819885
	c5.7484131-5.5421143,14.851593-5.5421143,20.6000061,0l44.8099976,43.6199951
	c5.5228577,5.3320618,5.6775208,14.1316833,0.345459,19.654541c-0.1131287,0.117157-0.228302,0.2323303-0.345459,0.345459
	C428.6565247,428.4296265,424.9590759,429.9337158,421.1099854,429.9299927z"/>
<path class="st0" d="M81.8899994,424.9299927c-3.8436661,0.0154724-7.5407181-1.4740906-10.3000031-4.1499939
	c-5.52285-5.3320618-5.6775208-14.1316833-0.3454666-19.654541c0.113121-0.117157,0.2282944-0.2323303,0.3454666-0.345459
	l44.8099976-43.6199951c5.7484055-5.5421143,14.851593-5.5421143,20.6000061,0
	c5.5366516,5.3256836,5.7076721,14.1313477,0.3819885,19.6679993c-0.1248474,0.1297913-0.2521973,0.2571411-0.3819885,0.3819885
	l-44.8099976,43.5700073C89.4289474,423.4531555,85.7330551,424.9422913,81.8899994,424.9299927z"/>
<path class="st0" d="M365.2999878,146.8899994c-3.8442383,0.0085449-7.5399475-1.4840851-10.2999878-4.1600037
	c-5.5228577-5.3320465-5.6775208-14.1316833-0.345459-19.6545334c0.1131287-0.1171722,0.228302-0.2323456,0.345459-0.3454666
	l44.8099976-43.6100006c5.7484131-5.542099,14.851593-5.542099,20.6000061,0
	c5.5228577,5.3320541,5.6775208,14.1316833,0.345459,19.6545334c-0.1131287,0.1171722-0.228302,0.2323456-0.345459,0.3454666
	l-44.8099976,43.6100006C372.8417358,145.4086456,369.1448669,146.9017487,365.2999878,146.8899994z"/>
</svg>
