<svg version="1.1" id="Calque_1" xmlns="http://www.w3.org/2000/svg" x="0" y="0" viewBox="0 0 500 500" xml:space="preserve">
  <style>
    .st0{fill:#87ceeb}
  </style>
  <path class="st0" d="M347.06 201.86c12.88.48 26.13 7.43 26.13 7.43-.93-13.94-17.67-31.77-17.67-31.77 2 1.1 3.85 2.19 5.57 3.27-39.1386-61.354-120.6038-79.3632-181.9578-40.2246S99.769 261.1692 138.9076 322.5232A131.77 131.77 0 0 0 203 374.76c-15.51-13.26-29-28.79-23.38-50.59 0 0 7.89 32.26 18.7 37.32 0 0-5.86-16 2.71-26.57 0 0-6.56 19.95 20.22 45.33a132.3805 132.3805 0 0 0 28.75 3.16c1.19 0 2.38 0 3.56-.05 11.87-9.78 26.77-26.6 29.92-51 0 0 6.31 16.38 1.13 29.7 0 0 35.38-20.42 34.48-61.32 2.25 2.53 20.28 43.43-27 69.15a277.3932 277.3932 0 0 0-26.56 12.58c49.6657-5.8985 91.72-39.3863 108.59-86.47-7.58 13.24-20.5 26-37.26 37.46C356 298.49 342 266 342 266c20.28 14 13.58 36 13.58 36 23.49-15.18 18.25-56.94 18.25-56.94a45.29 45.29 0 0 1 7.43 18.58c.35-3.95.55-7.95.55-12a133.4526 133.4526 0 0 0-1.1-17.06c-12.41-22.66-33.65-32.72-33.65-32.72zm-75.7-69.52-8.15 10.35c15.8658-5.165 33.1824-3.3056 47.59 5.11-38.75-10.37-67.07 11.79-67.07 11.79 1.77-23.95 27.63-27.25 27.63-27.25zm-52.07 11.57-5.41-9.27s19.38 4.63 18.93 24.88c0 0-19.83-20.67-50-14.76 11.3458-6.0192 24.8661-6.3342 36.48-.85zm-68 40.48s-10.19 17.38-9.6 29.78c0 0 8.7-7.43 17.71-9.11 0 0-16.22 12.65-22.08 37.1-3.21-27.41-6.32-39.63 13.92-57.77h.05zm16.67 142.53c-24.78-28.67-34.7-62-18-87.29 0 0-7.67 38.8 7.66 55.66 0 0-2.71-21.5 13.07-32.46-.07 0-13.14 29.09-2.78 64.09h.05zm9.37-159.57c-12.35.38-3.25 28.19-3.25 28.19-19-13.25-13.51-34.82 1.56-42.62 13.26-3.38 17.41 5.46 16.89 7.54s.22 9.11-15.25 6.89h.05zM270.2 338c-2.86-11.64-11.7-11.76-11.7-11.76 7.8 18.2-8.32 28.59-8.32 28.59-2.6-3.63-3.12-25.47-3.12-25.47-8.83 6.76-8.83 35.87-8.83 35.87-15.08-5.2-11.44-35.48-11.44-35.48-5.73 1.43-8.84 15.73-8.84 15.73-11.95-10.4-1.65-26.25-1.65-26.25l-9.52 5.2-2.6-10.4c-.26-.78 11.7-10.66 16.37-11.18S245 306 245 306c20.28 16.64 33.27 13 33.27 13 .5 7.79-8.07 19-8.07 19zm42.88-106.36c-.52 2.08-10.92 24.43-21.31 34.83 0 0-17.16-8.84-19.76-8.84s21.32 18.19 21.32 22.87c0 4.37 4.05 27.6-28 26.22a29.2399 29.2399 0 0 1-13.85-4.18c-27.52-16.65-13.65-23.11 3.41-31.39 14.07-10.42 7.32-7.75-.19-5.86a6.21 6.21 0 0 1-6.18-1.9l-1.43-1.6s-12.47 7.8-30.14-2.08l-.12.13c-1.9367 2.1931-5.0645 2.8913-7.75 1.73-2.81-1.18-4.67-.83 3.42 8.22.194.2107.4084.4016.64.57 16.35 11.79 21.95 18.2-2.08 28.72a8.73 8.73 0 0 1-8-.55c-27.42-16.64-7.66-35.54-1.69-43.5l-6.24 2.6001s-28-44.7 1.84-40.8c4.4 5.45 1.8 5.45 13.76 10.13l3.9 12.74c3.11-9.36 17.15-30.67-4.16-31.19s-25.47-7.28-5.2-36.91 29.11 2.6 30.15 5.72 3.91 15.07 4.55 18.19 32.87-74.85 65.1-14c21.57 40.28-17.67 26-24.95 28.07s-20.53.26-23.65 34.57c0 0 12-12.94 13.78-15.57s8.57 6.56 24.43-5.31 18.92 6.3199 18.4 8.3999v-.03zm-108.9-14.81c0-1.73 2.33-3.12 5.2-3.12s5.2 1.39 5.2 3.12-2.33 3.11-5.2 3.11-5.2-1.36-5.2-3.08v-.03zm78 5.66c-3.94.77-7.39.15-7.69-1.4s2.65-3.44 6.59-4.21 7.39-.15 7.69 1.4-2.64 3.47-6.59 4.24v-.03zm46-14.24s14.42-33.78 1.57-36.33c-19.13-.07-19.16-7.72-19.38-10.45s8.88-14.27 24.25-7.52c18.38 6.51 18.38 40.82-6.48 54.33l.04-.03zM250 100.41c-7.9344.1-14.4503-6.2457-14.56-14.18V24.55c.2107-8.044 6.9026-14.3942 14.9466-14.1834 7.7476.203 13.9804 6.4357 14.1834 14.1834v61.68c-.1097 7.9382-6.6317 14.2857-14.57 14.18zM250 488.48c-7.9344.1001-14.4503-6.2457-14.56-14.18v-61.68c.2107-8.044 6.9026-14.3942 14.9466-14.1834 7.7476.203 13.9804 6.4357 14.1834 14.1834v61.68c-.1097 7.9382-6.6317 14.2857-14.57 14.18zM476.44 259.1h-63.38c-7.8286.2079-14.3435-5.97-14.5514-13.7986s5.97-14.3435 13.7986-14.5514c.2509-.0067.5019-.0067.7528 0h63.38c7.8286-.2079 14.3435 5.97 14.5514 13.7986s-5.97 14.3435-13.7986 14.5514c-.2509.0067-.5019.0067-.7528 0zM23.56 259.1h63.38c7.8286.2079 14.3435-5.97 14.5514-13.7986s-5.97-14.3435-13.7986-14.5514a14.1686 14.1686 0 0 0-.7528 0H23.56c-7.8286-.2079-14.3435 5.97-14.5514 13.7986s5.97 14.3435 13.7986 14.5514c.2509.0067.5019.0067.7528 0zM134.7 146.89a14.73 14.73 0 0 1-10.3-4.16L79.59 99.12c-5.5229-5.332-5.6775-14.1317-.3455-19.6545.1132-.1172.2283-.2324.3455-.3455 5.7484-5.5421 14.8516-5.5421 20.6 0L145 122.69c5.5228 5.332 5.6775 14.1317.3455 19.6545a13.9154 13.9154 0 0 1-.3455.3455 14.73 14.73 0 0 1-10.3 4.2zM421.11 429.93a14.72 14.72 0 0 1-10.3-4.15L366 382.17c-5.5367-5.3257-5.7077-14.1313-.382-19.668.1249-.1298.2522-.2571.382-.382 5.7484-5.542 14.8516-5.542 20.6 0l44.81 43.62c5.5229 5.332 5.6775 14.1317.3455 19.6546a13.9668 13.9668 0 0 1-.3455.3454 14.72 14.72 0 0 1-10.3 4.19zM81.89 424.93a14.71 14.71 0 0 1-10.3-4.15c-5.5229-5.332-5.6775-14.1317-.3455-19.6545.1132-.1172.2283-.2324.3455-.3455l44.81-43.62c5.7484-5.5421 14.8516-5.5421 20.6 0 5.5367 5.3257 5.7077 14.1314.382 19.668a13.9146 13.9146 0 0 1-.382.382l-44.81 43.57a14.74 14.74 0 0 1-10.3 4.15zM365.3 146.89a14.75 14.75 0 0 1-10.3-4.16c-5.5229-5.332-5.6775-14.1317-.3455-19.6545.1132-.1172.2283-.2324.3455-.3455l44.81-43.61c5.7484-5.5421 14.8516-5.5421 20.6 0 5.5229 5.332 5.6775 14.1317.3455 19.6545a13.9276 13.9276 0 0 1-.3455.3455l-44.81 43.61a14.72 14.72 0 0 1-10.3 4.16z"/>
</svg>
