<svg id="Calque_1" data-name="Calque 1" xmlns="http://www.w3.org/2000/svg" viewBox="0 0 500 500"><defs><style>.cls-1{fill:#0f0854;}</style></defs><path class="cls-1" d="M347.06,201.86c12.88.48,26.13,7.43,26.13,7.43-.93-13.94-17.67-31.77-17.67-31.77,2,1.1,3.85,2.19,5.57,3.27A131.77,131.77,0,1,0,203,374.76c-15.51-13.26-29-28.79-23.38-50.59,0,0,7.89,32.26,18.7,37.32,0,0-5.86-16,2.71-26.57,0,0-6.56,19.95,20.22,45.33A132.38,132.38,0,0,0,250,383.41c1.19,0,2.38,0,3.56-.05,11.87-9.78,26.77-26.6,29.92-51,0,0,6.31,16.38,1.13,29.7,0,0,35.38-20.42,34.48-61.32,2.25,2.53,20.28,43.43-27,69.15a277.4,277.4,0,0,0-26.56,12.58A131.87,131.87,0,0,0,374.12,296c-7.58,13.24-20.5,26-37.26,37.46C356,298.49,342,266,342,266c20.28,14,13.58,36,13.58,36,23.49-15.18,18.25-56.94,18.25-56.94a45.29,45.29,0,0,1,7.43,18.58c.35-3.95.55-7.95.55-12a133.45,133.45,0,0,0-1.1-17.06C368.3,211.92,347.06,201.86,347.06,201.86Zm-75.7-69.52-8.15,10.35a58.47,58.47,0,0,1,47.59,5.11c-38.75-10.37-67.07,11.79-67.07,11.79C245.5,135.64,271.36,132.34,271.36,132.34Zm-52.07,11.57-5.41-9.27s19.38,4.63,18.93,24.88c0,0-19.83-20.67-50-14.76A40.73,40.73,0,0,1,219.29,143.91Zm-68,40.48s-10.19,17.38-9.6,29.78c0,0,8.7-7.43,17.71-9.11,0,0-16.22,12.65-22.08,37.1C134.11,214.75,131,202.53,151.24,184.39Zm16.67,142.53c-24.78-28.67-34.7-62-18-87.29,0,0-7.67,38.8,7.66,55.66,0,0-2.71-21.5,13.07-32.46C170.62,262.83,157.55,291.92,167.91,326.92Zm9.37-159.57c-12.35.38-3.25,28.19-3.25,28.19-19-13.25-13.51-34.82,1.56-42.62,13.26-3.38,17.41,5.46,16.89,7.54S192.75,169.57,177.28,167.35ZM270.2,338c-2.86-11.64-11.7-11.76-11.7-11.76,7.8,18.2-8.32,28.59-8.32,28.59-2.6-3.63-3.12-25.47-3.12-25.47-8.83,6.76-8.83,35.87-8.83,35.87-15.08-5.2-11.44-35.48-11.44-35.48-5.73,1.43-8.84,15.73-8.84,15.73-11.95-10.4-1.65-26.25-1.65-26.25l-9.52,5.2-2.6-10.4c-.26-.78,11.7-10.66,16.37-11.18S245,306,245,306c20.28,16.64,33.27,13,33.27,13C278.77,326.79,270.2,338,270.2,338Zm42.88-106.36c-.52,2.08-10.92,24.43-21.31,34.83,0,0-17.16-8.84-19.76-8.84s21.32,18.19,21.32,22.87c0,4.37,4.05,27.6-28,26.22a29.24,29.24,0,0,1-13.85-4.18c-27.52-16.65-13.65-23.11,3.41-31.39,14.07-10.42,7.32-7.75-.19-5.86a6.21,6.21,0,0,1-6.18-1.9l-1.43-1.6s-12.47,7.8-30.14-2.08l-.12.13a6.76,6.76,0,0,1-7.75,1.73c-2.81-1.18-4.67-.83,3.42,8.22a4.35,4.35,0,0,0,.64.57c16.35,11.79,21.95,18.2-2.08,28.72a8.73,8.73,0,0,1-8-.55c-27.42-16.64-7.66-35.54-1.69-43.5l-6.24,2.6s-28-44.7,1.84-40.8c4.4,5.45,1.8,5.45,13.76,10.13l3.9,12.74c3.11-9.36,17.15-30.67-4.16-31.19s-25.47-7.28-5.2-36.91,29.11,2.6,30.15,5.72,3.91,15.07,4.55,18.19,32.87-74.85,65.1-14c21.57,40.28-17.67,26-24.95,28.07s-20.53.26-23.65,34.57c0,0,12-12.94,13.78-15.57s8.57,6.56,24.43-5.31S313.6,229.59,313.08,231.67Zm-108.9-14.81c0-1.73,2.33-3.12,5.2-3.12s5.2,1.39,5.2,3.12-2.33,3.11-5.2,3.11S204.18,218.58,204.18,216.86Zm78,5.66c-3.94.77-7.39.15-7.69-1.4s2.65-3.44,6.59-4.21,7.39-.15,7.69,1.4S286.13,221.75,282.18,222.52Zm46-14.24s14.42-33.78,1.57-36.33c-19.13-.07-19.16-7.72-19.38-10.45s8.88-14.27,24.25-7.52C353,160.46,353,194.77,328.14,208.28Z"/><path class="cls-1" d="M250,100.41a14.38,14.38,0,0,1-14.56-14.18V24.55a14.57,14.57,0,0,1,29.13,0V86.23A14.38,14.38,0,0,1,250,100.41Z"/><path class="cls-1" d="M250,488.48a14.38,14.38,0,0,1-14.56-14.18V412.62a14.57,14.57,0,0,1,29.13,0V474.3A14.38,14.38,0,0,1,250,488.48Z"/><path class="cls-1" d="M476.44,259.1H413.06a14.18,14.18,0,1,1,0-28.35h63.38a14.18,14.18,0,1,1,0,28.35Z"/><path class="cls-1" d="M23.56,259.1H86.94a14.18,14.18,0,1,0,0-28.35H23.56a14.18,14.18,0,1,0,0,28.35Z"/><path class="cls-1" d="M134.7,146.89a14.73,14.73,0,0,1-10.3-4.16L79.59,99.12a13.9,13.9,0,0,1,0-20,14.84,14.84,0,0,1,20.6,0L145,122.69a13.9,13.9,0,0,1,0,20A14.73,14.73,0,0,1,134.7,146.89Z"/><path class="cls-1" d="M421.11,429.93a14.72,14.72,0,0,1-10.3-4.15L366,382.17a13.91,13.91,0,0,1,0-20.05,14.84,14.84,0,0,1,20.6,0l44.81,43.62a13.9,13.9,0,0,1,0,20A14.72,14.72,0,0,1,421.11,429.93Z"/><path class="cls-1" d="M81.89,424.93a14.71,14.71,0,0,1-10.3-4.15,13.9,13.9,0,0,1,0-20l44.81-43.62a14.84,14.84,0,0,1,20.6,0,13.91,13.91,0,0,1,0,20.05L92.19,420.78A14.74,14.74,0,0,1,81.89,424.93Z"/><path class="cls-1" d="M365.3,146.89a14.75,14.75,0,0,1-10.3-4.16,13.9,13.9,0,0,1,0-20l44.81-43.61a14.84,14.84,0,0,1,20.6,0,13.9,13.9,0,0,1,0,20L375.6,142.73A14.72,14.72,0,0,1,365.3,146.89Z"/></svg>